<!DOCTYPE svg PUBLIC "-//W3C//DTD SVG 1.1//EN" "http://www.w3.org/Graphics/SVG/1.1/DTD/svg11.dtd">
<svg version="1.1" xmlns="http://www.w3.org/2000/svg" xmlns:xlink="http://www.w3.org/1999/xlink" x="0px" y="0px"
	 viewBox="0 0 179.8 33.9" style="enable-background:new 0 0 179.8 33.9;" xml:space="preserve">
<style type="text/css">
	.st0{opacity:0.8;fill:#05989F;}
	.st1{fill:#D24E3A;}
	.st2{fill:#05989F;}
	.st3{fill:#FFFFFF;}
	.st4{fill:#D7D5D5;}
	.st5{fill:#382B2B;}
	.st6{fill:#1E1515;}
	.st7{fill:none;stroke:#B2B3B3;stroke-miterlimit:10;}
	.st8{fill:none;stroke:#FFFFFF;stroke-miterlimit:10;}
	.st9{fill:#B2B3B3;}
	.st10{fill:none;stroke:#B2B3B3;stroke-width:1.1499;stroke-miterlimit:10;}
	.st11{fill:#D14E3A;}
	.st12{opacity:0.9;fill:#FFFFFF;}
	.st13{fill:#4C4040;}
	.st14{fill:none;stroke:#FFFFFF;stroke-width:3.1028;stroke-linecap:round;stroke-miterlimit:10;}
	.st15{fill:#0999A0;}
	.st16{opacity:0.9;fill:#D24E3A;}
	.st17{fill:none;stroke:#D24E3A;stroke-width:1.5;stroke-miterlimit:10;}
	.st18{fill:none;stroke:#382B2B;stroke-miterlimit:10;}
	.st19{opacity:0.9;}
	.st20{fill:#AFAAAA;}
	.st21{fill:#0599A0;}
	.st22{opacity:0.4;fill:none;stroke:#FFFFFF;stroke-width:1.4614;stroke-miterlimit:10;}
	.st23{fill:#37ADB3;}
	.st24{fill:#605555;}
	.st25{fill:none;stroke:#B4B4B4;stroke-width:0.7307;stroke-miterlimit:10;}
	.st26{fill:#069AA0;}
	.st27{fill:#8CA022;}
	.st28{fill:#E6E6E6;}
	.st29{fill:#888080;}
	.st30{fill:#8BA022;}
	.st31{fill:#E7E6E6;}
	.st32{fill:#034D50;}
	.st33{fill:#4A5011;}
	.st34{fill:#7B7373;}
	.st35{fill:#70271D;}
	.st36{fill:#4BB3B9;}
	.st37{fill:#ACB95B;}
	.st38{fill:#EEEDED;}
	.st39{fill:#DF7C6D;}
	.st40{fill:#706262;}
	.st41{fill:#A3B34E;}
	.st42{fill:#D1D9A7;}
	.st43{fill:#38AEB3;}
	.st44{fill:#9BD7D9;}
	.st45{fill:#DB7161;}
	.st46{fill:#EDB8B0;}
	.st47{fill:none;stroke:#706262;stroke-width:0.5;stroke-miterlimit:10;}
	.st48{fill:#231F20;}
	.st49{opacity:0.8;fill:#8CA022;}
	.st50{opacity:0.8;fill:#D24E3A;}
	.st51{opacity:0.8;fill:#382B2B;}
	.st52{opacity:0.6;fill:#382B2B;}
	.st53{fill:none;stroke:#FFFFFF;stroke-width:0.5;stroke-miterlimit:10;}
	.st54{fill:none;stroke:#382B2B;stroke-width:0.5;stroke-miterlimit:10;}
	.st55{fill:none;stroke:#000000;stroke-miterlimit:10;}
	.st56{fill:none;stroke:#000000;stroke-width:0.6667;stroke-miterlimit:10;}
	.st57{opacity:0.23;fill:#05989F;}
	.st58{opacity:0.7;fill:none;stroke:#05989F;stroke-width:0.4844;stroke-miterlimit:10;}
</style>
<g id="bottom">
</g>
<g id="top">
	<path class="st3" d="M131.1,14.7l12.7-14.5h-16.4c-3.4,3.8-6.1,7.1-8.6,10.4V0h-13.4c0,0-9.5,0-17.6,0C79,0,71.7,5.4,69.6,12.8
		C67.6,5.4,60.3,0,51.5,0C41.2,0,32.8,7.6,32.8,16.9c0,1.7,0.3,3.3,0.8,4.8h13.7c-1-1.2-1.7-2.9-1.7-4.7c0-3.7,2.6-6.7,5.8-6.7
		c3.2,0,5.8,3,5.8,6.7c0,3.7-2.6,6.7-5.8,6.7l-29,0l14-22.9H1v10.6h13.5L0,33.9h52c0.2,0,0.4,0,0.6-0.1c8.2-0.4,15.1-5.7,17-12.7
		c2,7.3,9.4,12.8,18.1,12.8c6.5,0,12.3-3,15.6-7.6V12.3H91.9c1,1.2,1.7,2.9,1.7,4.7c0,3.7-2.6,6.7-5.8,6.7c-3.2,0-5.8-3-5.8-6.7
		c0-3.7,2.6-6.7,5.8-6.7h17.6v22.8h13.4V19.3l9.9,13.8h4.6l4.4-10.3L131.1,14.7z M166.1,0h-16.6l-14,33.1h14.1l2.1-5.5h12l1.9,5.5
		h14.4L166.1,0z M154.2,21l4.1-10.8l3.1,10.8H154.2z"/>
</g>
<g id="page_notes">
</g>
<g id="Z-1170_max">
</g>
</svg>
